<svg xmlns="http://www.w3.org/2000/svg" viewBox="0 0 64 64" role="img" aria-label="AURIVÁ">
  <rect width="64" height="64" rx="14" fill="#0E2A1B"/>
  <circle cx="32" cy="32" r="22" fill="none" stroke="#D4AF37" stroke-width="2.25"/>
  <!-- Stylized gold A -->
  <path
    fill="#D4AF37"
    d="M32 14.5c.7 0 1.3.4 1.55 1.05L44.8 46.2c.35.9-.3 1.85-1.25 1.85h-5.1c-.65 0-1.25-.4-1.5-1L34.2 38H29.8l-2.75 9.05c-.25.6-.85 1-1.5 1h-5.1c-.95 0-1.6-.95-1.25-1.85L30.45 15.55c.25-.65.85-1.05 1.55-1.05zm0 10.2-2.85 9.3h5.7L32 24.7z"
  />
  <!-- Leaf accent (bottom-left of A) -->
  <path
    fill="#6B8F71"
    d="M22.2 42.5c3.8-1.2 6.6-3.6 7.8-6.6-3.4 1.1-6.2 3.6-7.8 6.6z"
  />
  <path
    fill="#4F7355"
    d="M22.2 42.5c1.2-2.5 3.2-4.5 5.6-5.8-.4 2.4-2.4 4.6-5.6 5.8z"
  />
  <!-- Grain stalk accent (right of A) -->
  <path
    fill="none"
    stroke="#D4AF37"
    stroke-width="1.4"
    stroke-linecap="round"
    d="M39.5 28.5c2.2 3.2 3.2 6.8 2.8 10.4"
  />
  <circle cx="40.2" cy="30.2" r="1.35" fill="#D4AF37"/>
  <circle cx="41.5" cy="33.4" r="1.2" fill="#D4AF37"/>
  <circle cx="42" cy="36.6" r="1.1" fill="#D4AF37"/>
</svg>
